#Comment line ignore any data following # character 
#Hierarchical Translation and Rotation (.htr) file 
[Header]	
#Header keywords are followed by a single value 
FileType HTR		#Single word string
DataType HTRS		#Translation followed by rotation and scale data
FileVersion 1		#integer
NumSegments 84		#integer
NumFrames 2		#integer
DataFrameRate 30		#integer, data frame rate in this file
EulerRotationOrder ZYX
CalibrationUnits mm
RotationUnits Degrees
GlobalAxisofGravity Y
BoneLengthAxis Y
ScaleFactor 1.00
[SegmentNames&Hierarchy]
#CHILD	PARENT
MASTER GLOBAL
root MASTER
chest root
L_mid_tent01 root
R_mid_tent01 root
spine01 root
Bip01_Neck chest
L_humerus chest
R_humerus chest
weapon_bone chest
Bip01_Head Bip01_Neck
eye_left_bone Bip01_Head
eye_right_bone Bip01_Head
L_forearm L_humerus
L_front_hand L_forearm
L_weapon_bone L_forearm
L_front_hand01_01 L_front_hand
L_front_hand02_01 L_front_hand
L_front_hand03_01 L_front_hand
L_front_hand01_02 L_front_hand01_01
L_front_hand02_02 L_front_hand02_01
L_front_hand03_02 L_front_hand03_01
R_forearm R_humerus
R_front_hand R_forearm
R_weapon_bone R_forearm
R_front_hand01_01 R_front_hand
R_front_hand02_01 R_front_hand
R_front_hand03_01 R_front_hand
R_front_hand01_02 R_front_hand01_01
R_front_hand02_02 R_front_hand02_01
R_front_hand03_02 R_front_hand03_01
null_rope01_connect L_mid_tent01
Rope1_Seg01 null_rope01_connect
Rope1_Seg02 Rope1_Seg01
Rope1_Seg03 Rope1_Seg02
Rope1_Seg04 Rope1_Seg03
Rope1_Seg05 Rope1_Seg04
Rope1_Seg06 Rope1_Seg05
Rope1_Seg07 Rope1_Seg06
Rope1_Seg09 Rope1_Seg07
L_mid_hand01 Rope1_Seg09
L_mid_hand02 Rope1_Seg09
L_mid_hand03 Rope1_Seg09
null_rope02_connect R_mid_tent01
Rope2_Seg01 null_rope02_connect
Rope2_Seg02 Rope2_Seg01
Rope2_Seg03 Rope2_Seg02
Rope2_Seg04 Rope2_Seg03
Rope2_Seg05 Rope2_Seg04
Rope2_Seg06 Rope2_Seg05
Rope2_Seg07 Rope2_Seg06
Rope2_Seg09 Rope2_Seg07
R_mid_hand01 Rope2_Seg09
R_mid_hand02 Rope2_Seg09
R_mid_hand03 Rope2_Seg09
spine02 spine01
spine03 spine02
pelvis spine03
null_rope03_connect pelvis
null_rope04_connect pelvis
Rope3_Seg01 null_rope03_connect
Rope3_Seg02 Rope3_Seg01
Rope3_Seg03 Rope3_Seg02
Rope3_Seg04 Rope3_Seg03
Rope3_Seg05 Rope3_Seg04
Rope3_Seg06 Rope3_Seg05
Rope3_Seg07 Rope3_Seg06
Rope3_Seg08 Rope3_Seg07
Rope3_Seg09 Rope3_Seg08
R_rear_hand01 Rope3_Seg09
R_rear_hand02 Rope3_Seg09
R_rear_hand03 Rope3_Seg09
Rope4_Seg01 null_rope04_connect
Rope4_Seg02 Rope4_Seg01
Rope4_Seg03 Rope4_Seg02
Rope4_Seg04 Rope4_Seg03
Rope4_Seg05 Rope4_Seg04
Rope4_Seg06 Rope4_Seg05
Rope4_Seg07 Rope4_Seg06
Rope4_Seg08 Rope4_Seg07
Rope4_Seg09 Rope4_Seg08
L_rear_hand01 Rope4_Seg09
L_rear_hand02 Rope4_Seg09
L_rear_hand03 Rope4_Seg09
[BasePosition]
#SegmentName Tx, Ty, Tz, Rx, Ry, Rz, BoneLength
MASTER 0.000000 0.000000 0.000000 -90.000000 0.000000 0.000000 10.000000 
root 0.000000 0.000000 0.000000 0.000000 0.000000 0.000000 10.000000 
chest 0.000000 0.000000 0.000000 0.000000 0.000000 0.000000 10.000000 
L_mid_tent01 0.000000 0.000000 0.000000 0.000000 0.000000 0.000000 10.000000 
R_mid_tent01 0.000000 0.000000 0.000000 0.000000 0.000000 0.000000 10.000000 
spine01 0.000000 0.000000 0.000000 0.000000 0.000000 0.000000 10.000000 
Bip01_Neck 0.000000 0.000000 0.000000 0.000000 0.000000 0.000000 10.000000 
L_humerus 0.000000 0.000000 0.000000 0.000000 0.000000 0.000000 10.000000 
R_humerus 0.000000 0.000000 0.000000 0.000000 0.000000 0.000000 10.000000 
weapon_bone 0.000000 0.000000 0.000000 0.000000 0.000000 0.000000 10.000000 
Bip01_Head 0.000000 0.000000 0.000000 0.000000 0.000000 0.000000 10.000000 
eye_left_bone 0.000000 0.000000 0.000000 0.000000 0.000000 0.000000 10.000000 
eye_right_bone 0.000000 0.000000 0.000000 0.000000 0.000000 0.000000 10.000000 
L_forearm 0.000000 0.000000 0.000000 0.000000 0.000000 0.000000 10.000000 
L_front_hand 0.000000 0.000000 0.000000 0.000000 0.000000 0.000000 10.000000 
L_weapon_bone 0.000000 0.000000 0.000000 0.000000 0.000000 0.000000 10.000000 
L_front_hand01_01 0.000000 0.000000 0.000000 0.000000 0.000000 0.000000 10.000000 
L_front_hand02_01 0.000000 0.000000 0.000000 0.000000 0.000000 0.000000 10.000000 
L_front_hand03_01 0.000000 0.000000 0.000000 0.000000 0.000000 0.000000 10.000000 
L_front_hand01_02 0.000000 0.000000 0.000000 0.000000 0.000000 0.000000 10.000000 
L_front_hand02_02 0.000000 0.000000 0.000000 0.000000 0.000000 0.000000 10.000000 
L_front_hand03_02 0.000000 0.000000 0.000000 0.000000 0.000000 0.000000 10.000000 
R_forearm 0.000000 0.000000 0.000000 0.000000 0.000000 0.000000 10.000000 
R_front_hand 0.000000 0.000000 0.000000 0.000000 0.000000 0.000000 10.000000 
R_weapon_bone 0.000000 0.000000 0.000000 0.000000 0.000000 0.000000 10.000000 
R_front_hand01_01 0.000000 0.000000 0.000000 0.000000 0.000000 0.000000 10.000000 
R_front_hand02_01 0.000000 0.000000 0.000000 0.000000 0.000000 0.000000 10.000000 
R_front_hand03_01 0.000000 0.000000 0.000000 0.000000 0.000000 0.000000 10.000000 
R_front_hand01_02 0.000000 0.000000 0.000000 0.000000 0.000000 0.000000 10.000000 
R_front_hand02_02 0.000000 0.000000 0.000000 0.000000 0.000000 0.000000 10.000000 
R_front_hand03_02 0.000000 0.000000 0.000000 0.000000 0.000000 0.000000 10.000000 
null_rope01_connect 0.000000 0.000000 0.000000 0.000000 0.000000 0.000000 10.000000 
Rope1_Seg01 0.000000 0.000000 0.000000 0.000000 0.000000 0.000000 10.000000 
Rope1_Seg02 0.000000 0.000000 0.000000 0.000000 0.000000 0.000000 10.000000 
Rope1_Seg03 0.000000 0.000000 0.000000 0.000000 0.000000 0.000000 10.000000 
Rope1_Seg04 0.000000 0.000000 0.000000 0.000000 0.000000 0.000000 10.000000 
Rope1_Seg05 0.000000 0.000000 0.000000 0.000000 0.000000 0.000000 10.000000 
Rope1_Seg06 0.000000 0.000000 0.000000 0.000000 0.000000 0.000000 10.000000 
Rope1_Seg07 0.000000 0.000000 0.000000 0.000000 0.000000 0.000000 10.000000 
Rope1_Seg09 0.000000 0.000000 0.000000 0.000000 0.000000 0.000000 10.000000 
L_mid_hand01 0.000000 0.000000 0.000000 0.000000 0.000000 0.000000 10.000000 
L_mid_hand02 0.000000 0.000000 0.000000 0.000000 0.000000 0.000000 10.000000 
L_mid_hand03 0.000000 0.000000 0.000000 0.000000 0.000000 0.000000 10.000000 
null_rope02_connect 0.000000 0.000000 0.000000 0.000000 0.000000 0.000000 10.000000 
Rope2_Seg01 0.000000 0.000000 0.000000 0.000000 0.000000 0.000000 10.000000 
Rope2_Seg02 0.000000 0.000000 0.000000 0.000000 0.000000 0.000000 10.000000 
Rope2_Seg03 0.000000 0.000000 0.000000 0.000000 0.000000 0.000000 10.000000 
Rope2_Seg04 0.000000 0.000000 0.000000 0.000000 0.000000 0.000000 10.000000 
Rope2_Seg05 0.000000 0.000000 0.000000 0.000000 0.000000 0.000000 10.000000 
Rope2_Seg06 0.000000 0.000000 0.000000 0.000000 0.000000 0.000000 10.000000 
Rope2_Seg07 0.000000 0.000000 0.000000 0.000000 0.000000 0.000000 10.000000 
Rope2_Seg09 0.000000 0.000000 0.000000 0.000000 0.000000 0.000000 10.000000 
R_mid_hand01 0.000000 0.000000 0.000000 0.000000 0.000000 0.000000 10.000000 
R_mid_hand02 0.000000 0.000000 0.000000 0.000000 0.000000 0.000000 10.000000 
R_mid_hand03 0.000000 0.000000 0.000000 0.000000 0.000000 0.000000 10.000000 
spine02 0.000000 0.000000 0.000000 0.000000 0.000000 0.000000 10.000000 
spine03 0.000000 0.000000 0.000000 0.000000 0.000000 0.000000 10.000000 
pelvis 0.000000 0.000000 0.000000 0.000000 0.000000 0.000000 10.000000 
null_rope03_connect 0.000000 0.000000 0.000000 0.000000 0.000000 0.000000 10.000000 
null_rope04_connect 0.000000 0.000000 0.000000 0.000000 0.000000 0.000000 10.000000 
Rope3_Seg01 0.000000 0.000000 0.000000 0.000000 0.000000 0.000000 10.000000 
Rope3_Seg02 0.000000 0.000000 0.000000 0.000000 0.000000 0.000000 10.000000 
Rope3_Seg03 0.000000 0.000000 0.000000 0.000000 0.000000 0.000000 10.000000 
Rope3_Seg04 0.000000 0.000000 0.000000 0.000000 0.000000 0.000000 10.000000 
Rope3_Seg05 0.000000 0.000000 0.000000 0.000000 0.000000 0.000000 10.000000 
Rope3_Seg06 0.000000 0.000000 0.000000 0.000000 0.000000 0.000000 10.000000 
Rope3_Seg07 0.000000 0.000000 0.000000 0.000000 0.000000 0.000000 10.000000 
Rope3_Seg08 0.000000 0.000000 0.000000 0.000000 0.000000 0.000000 10.000000 
Rope3_Seg09 0.000000 0.000000 0.000000 0.000000 0.000000 0.000000 10.000000 
R_rear_hand01 0.000000 0.000000 0.000000 0.000000 0.000000 0.000000 10.000000 
R_rear_hand02 0.000000 0.000000 0.000000 0.000000 0.000000 0.000000 10.000000 
R_rear_hand03 0.000000 0.000000 0.000000 0.000000 0.000000 0.000000 10.000000 
Rope4_Seg01 0.000000 0.000000 0.000000 0.000000 0.000000 0.000000 10.000000 
Rope4_Seg02 0.000000 0.000000 0.000000 0.000000 0.000000 0.000000 10.000000 
Rope4_Seg03 0.000000 0.000000 0.000000 0.000000 0.000000 0.000000 10.000000 
Rope4_Seg04 0.000000 0.000000 0.000000 0.000000 0.000000 0.000000 10.000000 
Rope4_Seg05 0.000000 0.000000 0.000000 0.000000 0.000000 0.000000 10.000000 
Rope4_Seg06 0.000000 0.000000 0.000000 0.000000 0.000000 0.000000 10.000000 
Rope4_Seg07 0.000000 0.000000 0.000000 0.000000 0.000000 0.000000 10.000000 
Rope4_Seg08 0.000000 0.000000 0.000000 0.000000 0.000000 0.000000 10.000000 
Rope4_Seg09 0.000000 0.000000 0.000000 0.000000 0.000000 0.000000 10.000000 
L_rear_hand01 0.000000 0.000000 0.000000 0.000000 0.000000 0.000000 10.000000 
L_rear_hand02 0.000000 0.000000 0.000000 0.000000 0.000000 0.000000 10.000000 
L_rear_hand03 0.000000 0.000000 0.000000 0.000000 0.000000 0.000000 10.000000 
#Beginning of Data. Separated by tabs
#Fr	Tx	Ty	Tz	Rx	Ry	Rz	SF
[MASTER]
11 0.000000 0.000000 0.000000 0.001660 0.001660 0.001660 0.000000
12 0.000000 0.000000 0.000000 0.001660 0.001660 0.001660 0.000000
[root]
11 -37.882366 -51.398724 1502.621582 -85.210205 -49.372078 -101.397575 1503.977417
12 -37.774887 -52.200489 1502.612183 -90.297867 -50.509190 -96.025566 1503.993042
[chest]
11 -84.512650 -34.090519 0.000000 0.640562 -2.830752 164.934189 91.129311
12 -84.512650 -34.090519 0.000000 -1.140704 -7.698690 165.341644 91.129311
[L_mid_tent01]
11 27.299147 22.179106 -249.918716 2.896931 -1.405245 79.905212 252.381699
12 27.299150 22.179106 -249.918716 2.627187 -2.979769 79.479500 252.381699
[R_mid_tent01]
11 23.228794 24.509907 226.238495 163.149414 -9.842819 80.429054 228.744751
12 23.228794 24.509907 226.238495 164.159302 -5.582537 77.546753 228.744751
[spine01]
11 -0.361383 -0.195265 0.000000 0.002062 0.001122 32.879829 0.410763
12 -0.361383 -0.195265 0.000000 0.002062 0.001122 32.879829 0.410763
[Bip01_Neck]
11 165.484543 71.581718 0.000119 176.643677 -1.657967 43.431911 180.302734
12 165.484543 71.581718 0.000119 176.643677 -1.657967 43.431911 180.302734
[L_humerus]
11 -13.983130 -135.272980 -120.471481 163.697144 -3.775277 -59.296364 181.680161
12 -13.983130 -135.272980 -120.471481 164.120026 -2.524210 -60.929283 181.680161
[R_humerus]
11 -13.983309 -135.273102 125.287651 -179.117691 -24.151493 -83.465340 184.909012
12 -13.983309 -135.273102 125.287651 -177.878448 -17.165344 -84.894325 184.909012
[weapon_bone]
11 235.964890 -300.705902 0.000000 0.000000 -89.951546 -128.212341 382.234833
12 235.964890 -300.705902 0.000000 0.000000 -89.951546 -128.212341 382.234833
[Bip01_Head]
11 213.598831 185.284958 17.334232 31.775816 0.844815 -43.902702 283.293945
12 213.549576 185.422058 15.563774 31.850647 0.491899 -43.899708 283.243683
[eye_left_bone]
11 -24.626970 125.451866 -64.772606 0.000000 -90.000000 -99.840431 143.318359
12 -24.626970 125.451866 -64.772606 0.000000 -90.000000 -99.840431 143.318359
[eye_right_bone]
11 -24.626970 125.451866 64.327362 0.000000 -89.965736 80.156380 143.117676
12 -24.626970 125.451866 64.327362 0.000000 -89.965736 80.156380 143.117676
[L_forearm]
11 322.776093 0.000000 -0.000119 0.000396 -0.002314 -109.419975 322.776093
12 322.776093 0.000000 -0.000119 0.000396 -0.002314 -109.419975 322.776093
[L_front_hand]
11 241.149185 -0.042021 -3.300071 -178.667953 -1.835447 -27.422344 241.171753
12 241.149185 -0.042021 -3.300071 -178.667953 -1.835447 -27.422350 241.171753
[L_weapon_bone]
11 156.183838 0.000000 0.000000 0.000014 0.000007 0.000001 156.183838
12 156.183838 0.000000 0.000000 0.000014 0.000007 0.000001 156.183838
[L_front_hand01_01]
11 86.095154 20.947098 -0.655860 -0.282467 -0.528169 66.067474 88.609184
12 86.095154 20.947098 -0.655860 -0.274633 -0.532782 65.272827 88.609184
[L_front_hand02_01]
11 86.935165 -11.437475 24.513514 141.960785 -54.937954 -46.642345 91.046425
12 86.935165 -11.437475 24.513514 141.090271 -54.445614 -45.572052 91.046425
[L_front_hand03_01]
11 86.637497 -14.123976 -20.424902 -142.303543 53.163303 -48.671032 90.126129
12 86.637497 -14.123976 -20.424902 -141.476303 52.677540 -47.637543 90.126129
[L_front_hand01_02]
11 71.020905 -0.000179 0.000030 0.000315 -0.002326 -105.442802 71.020905
12 71.020905 -0.000179 0.000030 0.000315 -0.002326 -105.419182 71.020905
[L_front_hand02_02]
11 71.020927 -0.000119 0.000060 0.000315 -0.002326 -105.442802 71.020927
12 71.020927 -0.000119 0.000060 0.000315 -0.002326 -105.419182 71.020927
[L_front_hand03_02]
11 71.020905 -0.000060 0.000060 0.000315 -0.002326 -105.442802 71.020905
12 71.020905 -0.000060 0.000060 0.000315 -0.002326 -105.419182 71.020905
[R_forearm]
11 322.776428 -0.000060 0.000030 0.202103 0.065158 -108.062820 322.776428
12 322.776428 -0.000060 0.000030 0.202103 0.065158 -108.062805 322.776428
[R_front_hand]
11 238.847015 -0.006795 2.210259 -2.635298 -10.645460 -26.312500 238.857239
12 238.847015 -0.006795 2.210259 -2.635298 -10.645461 -26.312506 238.857239
[R_weapon_bone]
11 155.664093 0.002503 -0.000030 0.003487 0.001180 -90.988930 155.664078
12 155.664093 0.002503 -0.000030 0.003487 0.001180 -90.988930 155.664078
[R_front_hand01_01]
11 87.624611 14.231146 22.918642 -141.947067 -54.924736 46.726738 91.683487
12 87.624611 14.231146 22.918642 -140.500641 -54.097107 44.955364 91.683487
[R_front_hand02_01]
11 89.356956 14.367283 -19.491137 142.634140 53.329124 49.315857 92.579636
12 89.356956 14.367283 -19.491137 141.255966 52.517570 47.591045 92.579636
[R_front_hand03_01]
11 87.286232 -22.307278 -0.143439 0.092230 -0.445770 -66.286453 90.091743
12 87.286232 -22.307278 -0.143439 0.080269 -0.445286 -64.968231 90.091743
[R_front_hand01_02]
11 71.020905 0.000060 0.000119 0.002323 -0.000334 106.381706 71.020905
12 71.020905 0.000060 0.000119 0.002323 -0.000334 106.381714 71.020905
[R_front_hand02_02]
11 71.020844 -0.000030 -0.000119 0.002323 -0.000334 106.381706 71.020836
12 71.020844 -0.000030 -0.000119 0.002323 -0.000334 106.381714 71.020836
[R_front_hand03_02]
11 71.020905 0.000000 0.000030 0.002323 -0.000334 106.381706 71.020905
12 71.020905 0.000000 0.000030 0.002323 -0.000334 106.381714 71.020905
[null_rope01_connect]
11 328.732483 0.000000 -0.000238 -51.493660 -79.798569 111.448578 328.732483
12 328.732483 0.000000 -0.000238 -54.136116 -83.931755 115.291847 328.732483
[Rope1_Seg01]
11 -0.000023 -0.000046 0.000092 -23.248117 17.547047 -87.650620 0.000105
12 -0.000021 -0.000043 0.000085 -22.665306 17.957607 -92.680946 0.000098
[Rope1_Seg02]
11 139.999863 -0.000179 0.000000 3.553621 -1.602824 -1.399048 139.999863
12 139.999863 -0.000179 0.000000 2.901720 -1.955837 -0.067671 139.999863
[Rope1_Seg03]
11 139.999924 0.000060 -0.000060 4.828232 -2.247509 -1.845839 139.999924
12 139.999924 0.000060 -0.000060 3.515613 -2.579953 -0.047830 139.999924
[Rope1_Seg04]
11 139.999924 -0.000060 -0.000119 10.604651 -3.186132 -5.463457 139.999924
12 139.999924 -0.000060 -0.000119 5.684784 -3.462382 -1.156159 139.999924
[Rope1_Seg05]
11 139.999832 0.000119 -0.000060 1.064809 -5.675335 4.947006 139.999832
12 139.999832 0.000119 -0.000060 1.972088 -6.928742 5.136909 139.999832
[Rope1_Seg06]
11 139.999954 0.000119 -0.000060 -2.039912 -1.613489 4.369911 139.999954
12 139.999954 0.000119 -0.000060 -0.110913 -2.612837 2.982601 139.999954
[Rope1_Seg07]
11 139.999985 0.000060 0.000000 -0.149467 -1.050068 1.378025 139.999985
12 139.999985 0.000060 0.000000 0.199124 -1.395316 1.250611 139.999985
[Rope1_Seg09]
11 121.602913 0.000119 -0.000089 -89.793175 -1.359789 0.847147 121.602913
12 121.602913 0.000119 -0.000089 -89.793175 -1.359789 0.847147 121.602913
[L_mid_hand01]
11 103.859421 1.038730 8.195221 110.016693 -43.583393 -14.630751 104.187431
12 103.859421 1.038730 8.195221 111.216125 -46.770248 -16.325296 104.187431
[L_mid_hand02]
11 105.572853 -4.139662 -10.864139 -148.402451 33.171711 -41.059566 106.211075
12 105.572853 -4.139662 -10.864139 -150.384232 34.904903 -44.592545 106.211075
[L_mid_hand03]
11 104.641464 17.579376 -3.913581 -13.575850 13.082139 47.042397 106.179977
12 104.641464 17.579376 -3.913581 -12.781254 13.855400 50.452682 106.179977
[null_rope02_connect]
11 328.732849 0.000179 -0.000119 -54.525745 78.779884 64.948082 328.732849
12 328.732849 0.000179 -0.000119 -26.589191 76.830101 90.337433 328.732849
[Rope2_Seg01]
11 -0.000015 0.000104 0.000000 100.843498 13.704871 -97.062714 0.000105
12 -0.000024 0.000103 0.000000 102.149132 15.181810 -95.141098 0.000106
[Rope2_Seg02]
11 139.999741 -0.000060 -0.000119 1.704553 -9.413260 1.077269 139.999756
12 139.999741 -0.000060 -0.000119 0.851782 -8.575768 2.224371 139.999756
[Rope2_Seg03]
11 140.000107 0.000030 0.000000 1.192661 -9.417257 1.025016 140.000107
12 140.000107 0.000030 0.000000 0.620363 -10.032788 2.568844 140.000107
[Rope2_Seg04]
11 139.999802 0.000000 -0.000060 2.028063 -15.207659 -1.871042 139.999802
12 139.999802 0.000000 -0.000060 1.381418 -19.805899 0.724520 139.999802
[Rope2_Seg05]
11 139.999985 -0.000060 0.000119 -0.209528 -2.120923 2.587851 139.999985
12 139.999985 -0.000060 0.000119 -0.133526 -1.710890 4.080217 139.999985
[Rope2_Seg06]
11 139.999893 -0.000030 -0.000119 -0.887281 14.566680 9.542736 139.999893
12 139.999893 -0.000030 -0.000119 -0.606009 23.626553 9.897265 139.999893
[Rope2_Seg07]
11 139.999893 0.000060 -0.000060 -3.869879 16.293003 10.974391 139.999893
12 139.999893 0.000060 -0.000060 -4.811067 16.348879 7.814299 139.999893
[Rope2_Seg09]
11 121.338966 0.000089 -0.000060 33.793236 -1.359788 -0.847141 121.338966
12 121.338966 0.000089 -0.000060 33.793236 -1.359788 -0.847141 121.338966
[R_mid_hand01]
11 104.680779 11.144459 -10.335981 -36.116535 33.174706 39.598408 105.778534
12 104.680779 11.144459 -10.335981 -36.922554 32.243565 38.107742 105.778534
[R_mid_hand02]
11 104.070427 2.443552 8.231699 69.680679 -44.419243 15.065832 104.424065
12 104.070427 2.443552 8.231699 70.193451 -42.958271 14.324638 104.424065
[R_mid_hand03]
11 106.028137 -11.221827 -5.996406 -170.354065 12.593579 -49.350628 106.788818
12 106.028137 -11.221827 -5.996406 -170.013962 12.325404 -47.779564 106.788818
[spine02]
11 129.756927 0.001550 0.000119 0.360061 -4.044797 -12.915058 129.756927
12 129.756927 0.001550 0.000119 0.360061 -4.044797 -12.915058 129.756927
[spine03]
11 78.614067 0.081635 -4.899010 1.896495 3.831288 16.473045 78.766602
12 78.614067 0.081635 -4.899010 1.896495 3.831288 16.473045 78.766602
[pelvis]
11 169.435242 0.051022 0.000000 -0.060465 -0.180225 14.087931 169.435257
12 169.435242 0.051022 0.000000 -0.060465 -0.180225 14.087930 169.435257
[null_rope03_connect]
11 -1.257226 -2.466202 137.391083 -60.230370 -81.736588 149.483109 137.418976
12 -1.257226 -2.466202 137.391083 -82.219971 -84.280014 172.255371 137.418976
[null_rope04_connect]
11 -1.259640 -2.480268 -137.844437 -60.230370 -81.736588 149.483109 137.872513
12 -1.259640 -2.480268 -137.844437 -82.219971 -84.280014 172.255371 137.872513
[Rope3_Seg01]
11 0.000010 0.000038 -0.000114 -132.182983 8.458044 -90.435623 0.000121
12 0.000010 0.000038 -0.000114 -131.907074 8.506954 -87.246590 0.000121
[Rope3_Seg02]
11 139.999924 -0.000119 0.000060 -0.272823 3.478784 8.427402 139.999924
12 139.999924 -0.000119 0.000060 0.610764 6.445444 10.084908 139.999924
[Rope3_Seg03]
11 139.999924 -0.000119 0.000119 -0.599049 3.050456 7.595625 139.999924
12 139.999924 -0.000119 0.000119 0.402532 5.285161 8.240973 139.999924
[Rope3_Seg04]
11 139.999924 0.000119 0.000000 -1.943010 4.485624 12.066327 139.999924
12 139.999924 0.000119 0.000000 0.343088 7.095261 11.652940 139.999924
[Rope3_Seg05]
11 139.999924 -0.000238 0.000060 -1.069023 1.502991 4.410749 139.999924
12 139.999924 -0.000238 0.000060 0.108685 3.125958 5.008168 139.999924
[Rope3_Seg06]
11 139.999893 -0.000119 -0.000060 2.464164 -1.715659 -6.301752 139.999893
12 139.999893 -0.000119 -0.000060 0.961784 -1.389165 -2.879106 139.999893
[Rope3_Seg07]
11 139.999771 0.000060 -0.000119 4.443276 -5.749457 -17.913986 139.999771
12 139.999771 0.000060 -0.000119 2.274720 -7.207519 -12.990870 139.999771
[Rope3_Seg08]
11 139.999985 -0.000060 0.000000 1.808571 -4.345452 -11.152117 139.999985
12 139.999985 -0.000060 0.000000 1.715837 -7.019475 -11.983436 139.999985
[Rope3_Seg09]
11 90.185997 -0.000179 -0.000060 89.793228 -1.359877 -0.847183 90.185997
12 90.185997 -0.000179 -0.000060 89.793228 -1.359877 -0.847183 90.185997
[R_rear_hand01]
11 103.366196 -6.073594 -10.757982 -165.009155 19.819437 -41.100956 104.101845
12 103.366196 -6.073594 -10.757982 -164.755127 19.627697 -40.352161 104.101845
[R_rear_hand02]
11 100.509819 12.039542 -7.992327 -30.502344 25.155792 38.836960 101.543350
12 100.509819 12.039542 -7.992327 -30.792652 24.782448 38.141541 101.543350
[R_rear_hand03]
11 101.539970 5.215704 5.435467 82.364601 -41.773376 8.967985 101.819031
12 101.539970 5.215704 5.435467 82.448349 -41.048256 8.840378 101.819031
[Rope4_Seg01]
11 0.000010 0.000023 -0.000092 45.684986 8.291906 -121.349243 0.000095
12 0.000010 0.000021 -0.000085 43.619240 9.165875 -128.011917 0.000089
[Rope4_Seg02]
11 139.999985 0.000060 0.000119 2.481836 13.983514 13.934253 139.999985
12 139.999985 0.000060 0.000119 4.339083 16.779053 18.372078 139.999985
[Rope4_Seg03]
11 139.999924 0.000000 -0.000238 0.097537 8.420609 7.974569 139.999924
12 139.999924 0.000000 -0.000238 0.318853 11.642586 11.697192 139.999924
[Rope4_Seg04]
11 139.999985 0.000000 0.000119 -0.444298 5.230645 4.988300 139.999985
12 139.999985 0.000000 0.000119 -1.193279 8.901388 9.051526 139.999985
[Rope4_Seg05]
11 139.999802 -0.000060 -0.000119 0.002853 0.352800 0.387433 139.999802
12 139.999802 -0.000060 -0.000119 -0.430690 1.521698 1.712321 139.999802
[Rope4_Seg06]
11 139.999924 0.000000 0.000060 0.640493 -3.015519 -2.835547 139.999924
12 139.999924 0.000000 0.000060 0.850982 -2.433810 -2.480182 139.999924
[Rope4_Seg07]
11 139.999802 0.000000 0.000000 1.243039 -7.193574 -6.710953 139.999802
12 139.999802 0.000000 0.000000 2.315133 -7.934050 -8.118853 139.999802
[Rope4_Seg08]
11 139.999924 0.000000 0.000119 -1.090062 -4.942135 -4.432648 139.999924
12 139.999924 0.000000 0.000119 -0.477678 -6.286380 -5.988029 139.999924
[Rope4_Seg09]
11 90.185791 0.000060 0.000060 -135.617828 2.228885 0.850567 90.185791
12 90.185791 0.000060 0.000060 -135.617828 2.228885 0.850567 90.185791
[L_rear_hand01]
11 101.696655 -8.392275 -7.654577 -28.015862 -27.942142 135.607529 102.329041
12 101.696655 -8.392275 -7.654577 -26.077681 -29.734324 131.595932 102.329041
[L_rear_hand02]
11 102.726799 -1.568258 5.773216 81.577332 47.415264 169.913025 102.900848
12 102.726799 -1.568258 5.773216 80.880577 51.310966 168.995010 102.900848
[L_rear_hand03]
11 104.552910 9.721220 -10.420293 -167.078079 -21.194330 -132.993347 105.519653
12 104.552910 9.721220 -10.420293 -168.606277 -22.023735 -128.845840 105.519653
